<?xml version="1.0" encoding="utf-8"?>
<!-- Generator: Adobe Illustrator 24.3.0, SVG Export Plug-In . SVG Version: 6.00 Build 0)  -->
<svg version="1.1" id="Capa_1" xmlns="http://www.w3.org/2000/svg" xmlns:xlink="http://www.w3.org/1999/xlink" x="0px" y="0px"
	 viewBox="0 0 270.45 270.46" style="enable-background:new 0 0 270.45 270.46;" xml:space="preserve">
<style type="text/css">
	.st0{fill:#00C1F4;}
	.st1{fill:#8ED3F1;}
	.st2{fill:#FF0F98;}
	.st3{fill:#F487B6;}
	.st4{fill:#FFFFFF;}
</style>
<g>
	<polygon class="st0" points="48.84,245.09 48.84,264.79 73,264.79 73,255.97 56.89,255.97 56.89,249.25 70.71,249.25 70.71,240.4 
		56.89,240.4 56.89,229.37 72.08,229.37 66.9,220.63 48.84,220.63 48.84,236.38 	"/>
	<polygon class="st0" points="113.03,229.43 97.15,229.43 97.15,264.79 89.07,264.79 89.07,229.43 75.77,229.43 70.84,220.63 
		117,220.63 	"/>
	<polygon class="st0" points="120.91,219.54 120.66,219.54 101.52,264.79 110.22,264.79 112.78,258.62 115.92,251.06 120.81,239.26 
		125.68,251.06 128.82,258.62 131.35,264.79 140.08,264.79 	"/>
	<path class="st0" d="M41.97,241.04c0.58,4.11-0.71,8.44-3.89,11.6c-5.37,5.35-14.08,5.35-19.45,0c-5.37-5.35-5.37-14.02,0-19.36
		c3.18-3.17,7.54-4.46,11.67-3.87l7.02-6.98c-8.23-3.55-18.15-1.99-24.87,4.7c-8.79,8.75-8.79,22.92,0,31.67s23.03,8.75,31.82,0
		c6.72-6.69,8.29-16.56,4.73-24.74L41.97,241.04z"/>
	<path class="st1" d="M97.15,229.43h15.88l3.97-8.79H70.84l4.93,8.79h13.3v21.27c2.66-0.19,5.36-0.36,8.08-0.51V229.43z"/>
	<path class="st1" d="M120.81,239.26l4.07,9.87c2.82-0.06,5.65-0.1,8.51-0.12l-12.48-29.47h-0.25l-12.74,30.11
		c2.88-0.12,5.78-0.23,8.71-0.32L120.81,239.26z"/>
	<path class="st1" d="M48.84,250.26v4.58c2.63-0.37,5.32-0.73,8.05-1.07v-4.53v0h13.82v-8.85H56.89v0v-11.03v0h15.18l-5.17-8.74
		H48.84v15.75v0v3.95v4.77V250.26z"/>
	<path class="st1" d="M41.97,241.04c0.58,4.11-0.71,8.44-3.89,11.6c-5.37,5.35-14.08,5.35-19.45,0c-5.37-5.35-5.37-14.02,0-19.36
		c3.18-3.17,7.54-4.46,11.67-3.87l7.02-6.98c-8.23-3.55-18.15-1.99-24.87,4.7c-8.79,8.75-8.79,22.92,0,31.67
		c0.87,0.86,1.79,1.64,2.76,2.33c0.02-0.01,0.04-0.03,0.07-0.04c9.36-2.26,20.01-4.27,31.69-5.97c0.11-0.02,0.21-0.02,0.31-0.03
		c4.1-6.33,4.68-14.26,1.73-21.04L41.97,241.04z"/>
	<polygon class="st1" points="46.81,230.29 41.16,224.56 22.78,242.94 28.47,248.64 	"/>
	<polygon class="st2" points="184.72,255.97 184.72,220.63 176.67,225.92 176.67,264.79 205.11,264.79 199.26,255.97 	"/>
	<path class="st2" d="M224.76,220.63v27.8c0,4.79-3.5,8.33-7.38,8.33c-3.88,0-7.33-3.51-7.33-8.33v-27.8h-8.1v27.83
		c0,1.67,0.21,3.25,0.57,4.75l6.57,9.91c2.4,1.67,5.25,2.62,8.32,2.62c8.53,0,15.46-7.29,15.46-17.28v-27.83H224.76z"/>
	<path class="st2" d="M255.75,239.92c0.97,0,3.78-2.9,3.78-7.59c0-5.94-4.52-11.7-11.63-11.7h-5.81l-5.11,8.63h-0.01v35.53h15.14
		c8.25,0,12.5-6.87,12.5-13.39C264.6,244.3,259.6,239.92,255.75,239.92 M244.99,229.26h3.4c1.86,0,3.63,1.75,3.63,4.25
		c0,2.58-1.86,4.38-3.78,4.38h-3.26V229.26z M251.35,256.13h-6.36v-10.46h6.34c3.83,0,5.42,2.55,5.42,5.09
		C256.74,254.16,253.96,256.13,251.35,256.13"/>
	<path class="st2" d="M135.43,243.05c0-12.14,10.66-22.41,23.3-22.41c5.84,0.08,11.02,2.29,15.72,6.64l-5.2,6.8
		c-3.06-2.88-6.74-4.64-10.6-4.64c-7.21,0-14.08,6.14-14.08,13.66c0,7.66,7.13,13.58,14.06,13.58c4.12,0,7.68-2.11,10.66-4.91
		l5.18,6.99c-3.95,3.76-8.77,6.59-15.56,6.59C145.95,265.35,135.43,255.13,135.43,243.05"/>
	<path class="st3" d="M184.72,220.63l-8.05,5.28v23.92c2.71,0.13,5.39,0.28,8.05,0.43V220.63z"/>
	<path class="st3" d="M232.86,248.46v-27.83h-8.1v27.8c0,2.05-0.65,3.87-1.69,5.29c2.97,0.37,5.89,0.75,8.75,1.16
		C232.49,252.92,232.86,250.76,232.86,248.46"/>
	<path class="st3" d="M210.05,248.43v-27.8h-8.1v27.83c0,1.06,0.09,2.09,0.25,3.08c2.95,0.25,5.85,0.53,8.71,0.81
		C210.36,251.21,210.05,249.88,210.05,248.43"/>
	<path class="st3" d="M264.6,251.39c0-7.09-5-11.48-8.85-11.48c0.97,0,3.78-2.9,3.78-7.59c0-5.94-4.52-11.7-11.63-11.7h-5.81
		l-5.11,8.63h-0.01v26.38c8.91,1.37,17.18,2.92,24.7,4.63C263.61,257.76,264.6,254.54,264.6,251.39 M244.99,229.26h3.4
		c1.86,0,3.63,1.75,3.63,4.25c0,2.58-1.86,4.38-3.78,4.38h-3.26V229.26z M251.35,256.13h-6.36v-10.46h6.34
		c3.83,0,5.42,2.55,5.42,5.1C256.74,254.16,253.96,256.13,251.35,256.13"/>
	<path class="st3" d="M146.06,249c-0.95-1.77-1.5-3.77-1.5-5.9c0-7.52,6.88-13.66,14.08-13.66c3.87,0,7.54,1.76,10.6,4.64l5.2-6.8
		c-4.7-4.35-9.88-6.56-15.73-6.64c-12.63,0-23.29,10.27-23.29,22.41c0,2.05,0.31,4.04,0.87,5.94c1.3-0.01,2.6-0.01,3.9-0.01
		C142.17,248.98,144.12,248.98,146.06,249"/>
	<path class="st1" d="M184.43,60.14h-81.01l14.31,24.26h28.63c-5.59,22.35-23.88,37.76-42.92,36.08
		c-19.62-1.74-42.59-16.09-42.59-47.18c0-17.85,15.37-42.51,44.3-43.59c10.63-0.01,19.95,2.47,29.55,10l17.61-17.73
		C130.41,2.63,103.85,4.78,103.72,4.79c0,0-25.96-0.92-47.75,21.34C43.29,39.08,36.23,57.16,35.95,72.81
		c-0.38,20.69,6.95,37.05,18.34,49.62c9.37,10.34,20.53,17.4,37.08,21.37L70.3,171.22"/>
	<path class="st3" d="M178,182.27c-14.86,0-27.23-7.27-33.64-14.4c-16.16-17.98-11.8-36.79-11.3-39.49l-24.05,23.67
		c2.81,13.15,8.65,23.49,17.61,33.16c12.75,13.62,28.71,20.78,47.47,21.87c20.63,1.19,40.81-7.21,54.09-21.32l-21.82-13.71
		C197.53,179.01,188.48,182.27,178,182.27"/>
	<path class="st3" d="M223.9,83.87c-7.13-5.9-14.7-10.26-22.72-13.06l33.32-41.99l-40.22,39.99c-0.01,0-0.02-0.01-0.03-0.01
		L170.5,92.14c15.74-2.52,28.04,3.22,35.74,9.48L223.9,83.87z"/>
	<path class="st0" d="M159.78,60.14L139.94,84.4h6.42c-4.89,19.54-19.48,33.78-35.8,35.92l-19.2,23.48c0,0,0.01,0,0.01,0
		l-32.78,40.07L184.43,60.14H159.78z"/>
	<path class="st2" d="M234.07,29.37l-8.71,8.54l-31.07,30.9c-0.01,0-0.02-0.01-0.03-0.01L170.5,92.14c5.08-0.81,9.8-0.76,14.12-0.12
		l16.7-21.16c-0.05-0.02-0.09-0.04-0.14-0.05L234.07,29.37z"/>
	<path class="st2" d="M135.57,154.17c-5.32-12.69-2.95-23.48-2.53-25.69l-24.04,23.58c1.89,8.83,5.15,16.4,9.81,23.35L135.57,154.17
		z"/>
	<g>
		<path class="st4" d="M124.97,71.84c-0.67-0.65-1.28-1.22-1.87-1.82c-0.12-0.13-0.2-0.35-0.2-0.53c-0.02-0.92-0.01-1.84-0.01-2.76
			c0-0.46,0.18-0.64,0.64-0.65c0.96-0.01,1.91-0.01,2.87,0c0.46,0,0.67,0.21,0.68,0.66c0,0.93,0,1.86-0.02,2.79
			c0,0.14-0.06,0.31-0.15,0.41C126.29,70.57,125.65,71.17,124.97,71.84"/>
		<path class="st4" d="M123.88,72.91c-0.63,0.65-1.16,1.25-1.75,1.81c-0.17,0.16-0.46,0.27-0.7,0.27c-0.88,0.03-1.76,0.02-2.64,0.01
			c-0.5,0-0.69-0.19-0.69-0.68c0-0.93,0-1.86,0-2.8c0-0.49,0.21-0.69,0.69-0.69c0.91,0,1.81-0.01,2.72,0c0.15,0,0.35,0.04,0.45,0.14
			C122.6,71.6,123.22,72.24,123.88,72.91"/>
		<path class="st4" d="M124.97,74.03c0.66,0.63,1.29,1.23,1.9,1.85c0.11,0.11,0.18,0.31,0.18,0.47c0.02,0.92,0.01,1.84,0.01,2.76
			c0,0.49-0.19,0.68-0.69,0.68c-0.93,0-1.87,0.01-2.8,0c-0.51,0-0.68-0.18-0.68-0.68c0-0.91-0.01-1.82,0.01-2.72
			c0-0.18,0.06-0.4,0.17-0.51C123.67,75.25,124.31,74.66,124.97,74.03"/>
		<path class="st4" d="M126.06,72.93c0.67-0.68,1.29-1.32,1.92-1.94c0.09-0.09,0.27-0.14,0.41-0.14c0.93-0.01,1.86-0.01,2.8-0.01
			c0.42,0,0.63,0.21,0.63,0.63c0.01,0.98,0.01,1.97,0,2.95c0,0.39-0.22,0.59-0.62,0.6c-0.94,0-1.89,0.01-2.83-0.01
			c-0.15,0-0.33-0.07-0.43-0.17C127.31,74.22,126.71,73.6,126.06,72.93"/>
		<path class="st4" d="M151.16,76.05c1.28-0.01,2.32,1.02,2.32,2.29c0,1.26-1.04,2.32-2.29,2.33c-1.26,0.01-2.31-1.03-2.32-2.3
			C148.87,77.09,149.89,76.06,151.16,76.05"/>
		<path class="st4" d="M148.05,72.93c0,1.27-1,2.29-2.26,2.3c-1.29,0.01-2.32-0.99-2.34-2.27c-0.02-1.25,1.04-2.34,2.27-2.35
			C147.02,70.61,148.05,71.64,148.05,72.93"/>
		<path class="st4" d="M151.24,69.8c-1.29,0.03-2.35-0.97-2.36-2.24c-0.02-1.3,0.96-2.32,2.26-2.34c1.28-0.02,2.33,0.96,2.35,2.21
			C153.51,68.78,152.57,69.78,151.24,69.8"/>
		<path class="st4" d="M154.3,72.91c0-1.26,1.07-2.31,2.32-2.3c1.24,0.01,2.32,1.1,2.3,2.34c-0.02,1.27-1.06,2.28-2.34,2.28
			C155.31,75.23,154.3,74.19,154.3,72.91"/>
	</g>
</g>
</svg>
